# xmcd
#
# Track frame offsets:
# 150
# 18556
# 37318
# 54672
# 70690
# 86545
# 104443
# 121639
# 142882
# 160643
# 178887
# 193577
# 212866
#
# Disc length: 3059 seconds
#
#
# Revision: 0
# Processed by: cddbd v1.5.1PL2 Copyright (c) Steve Scherf et al.
# Submitted via: FreeRIP 2.944 
#
DISCID=b40bf10d
DTITLE=Happy Gang - te+én
DYEAR=1998
DGENRE=Rock
TTITLE0=Mindenkinek egy a vágya
TTITLE1=Anya
TTITLE2=Szeretlek, halgass meg!
TTITLE3=Te és Én
TTITLE4=Eljött a nyár
TTITLE5=Soha ne hagyj egyedül
TTITLE6=Jéghideg szívem
TTITLE7=Hé, várj!
TTITLE8=Babe, gyere énekelj!
TTITLE9=Te mit kivánnál?
TTITLE10=Egész nyáron vártam
TTITLE11=Adj esélyt!
TTITLE12=Sokáig voltam távol
EXTD=
EXTT0=
EXTT1=
EXTT2=
EXTT3=
EXTT4=
EXTT5=
EXTT6=
EXTT7=
EXTT8=
EXTT9=
EXTT10=
EXTT11=
EXTT12=
PLAYORDER=
